solid 6-angle-40x60
   facet normal 8.660254e-01 0.000000e+00 5.000000e-01
      outer loop
         vertex 4.618802e+01 6.000000e+01 2.000000e+01
         vertex 3.464102e+01 6.000000e+01 4.000000e+01
         vertex 4.618802e+01 0.000000e+00 2.000000e+01
      endloop
   endfacet
   facet normal 8.660254e-01 0.000000e+00 5.000000e-01
      outer loop
         vertex 4.618802e+01 0.000000e+00 2.000000e+01
         vertex 3.464102e+01 6.000000e+01 4.000000e+01
         vertex 3.464102e+01 0.000000e+00 4.000000e+01
      endloop
   endfacet
   facet normal 8.660254e-01 0.000000e+00 -5.000000e-01
      outer loop
         vertex 3.464102e+01 6.000000e+01 0.000000e+00
         vertex 4.618802e+01 6.000000e+01 2.000000e+01
         vertex 3.464102e+01 0.000000e+00 0.000000e+00
      endloop
   endfacet
   facet normal 8.660254e-01 0.000000e+00 -5.000000e-01
      outer loop
         vertex 3.464102e+01 0.000000e+00 0.000000e+00
         vertex 4.618802e+01 6.000000e+01 2.000000e+01
         vertex 4.618802e+01 0.000000e+00 2.000000e+01
      endloop
   endfacet
   facet normal 0.000000e+00 0.000000e+00 -1.000000e+00
      outer loop
         vertex 1.154701e+01 6.000000e+01 0.000000e+00
         vertex 3.464102e+01 6.000000e+01 0.000000e+00
         vertex 1.154701e+01 0.000000e+00 0.000000e+00
      endloop
   endfacet
   facet normal 0.000000e+00 0.000000e+00 -1.000000e+00
      outer loop
         vertex 1.154701e+01 0.000000e+00 0.000000e+00
         vertex 3.464102e+01 6.000000e+01 0.000000e+00
         vertex 3.464102e+01 0.000000e+00 0.000000e+00
      endloop
   endfacet
   facet normal -8.660254e-01 -0.000000e+00 -5.000000e-01
      outer loop
         vertex 0.000000e+00 6.000000e+01 2.000000e+01
         vertex 1.154701e+01 6.000000e+01 0.000000e+00
         vertex 0.000000e+00 0.000000e+00 2.000000e+01
      endloop
   endfacet
   facet normal -8.660254e-01 0.000000e+00 -5.000000e-01
      outer loop
         vertex 0.000000e+00 0.000000e+00 2.000000e+01
         vertex 1.154701e+01 6.000000e+01 0.000000e+00
         vertex 1.154701e+01 0.000000e+00 0.000000e+00
      endloop
   endfacet
   facet normal -8.660254e-01 0.000000e+00 5.000000e-01
      outer loop
         vertex 1.154701e+01 6.000000e+01 4.000000e+01
         vertex 0.000000e+00 6.000000e+01 2.000000e+01
         vertex 1.154701e+01 0.000000e+00 4.000000e+01
      endloop
   endfacet
   facet normal -8.660254e-01 0.000000e+00 5.000000e-01
      outer loop
         vertex 1.154701e+01 0.000000e+00 4.000000e+01
         vertex 0.000000e+00 6.000000e+01 2.000000e+01
         vertex 0.000000e+00 0.000000e+00 2.000000e+01
      endloop
   endfacet
   facet normal 0.000000e+00 0.000000e+00 1.000000e+00
      outer loop
         vertex 3.464102e+01 6.000000e+01 4.000000e+01
         vertex 1.154701e+01 6.000000e+01 4.000000e+01
         vertex 3.464102e+01 0.000000e+00 4.000000e+01
      endloop
   endfacet
   facet normal 0.000000e+00 0.000000e+00 1.000000e+00
      outer loop
         vertex 3.464102e+01 0.000000e+00 4.000000e+01
         vertex 1.154701e+01 6.000000e+01 4.000000e+01
         vertex 1.154701e+01 0.000000e+00 4.000000e+01
      endloop
   endfacet
   facet normal 0.000000e+00 1.000000e+00 -0.000000e+00
      outer loop
         vertex 3.464102e+01 6.000000e+01 0.000000e+00
         vertex 1.154701e+01 6.000000e+01 0.000000e+00
         vertex 4.618802e+01 6.000000e+01 2.000000e+01
      endloop
   endfacet
   facet normal 0.000000e+00 1.000000e+00 0.000000e+00
      outer loop
         vertex 4.618802e+01 6.000000e+01 2.000000e+01
         vertex 1.154701e+01 6.000000e+01 0.000000e+00
         vertex 0.000000e+00 6.000000e+01 2.000000e+01
      endloop
   endfacet
   facet normal 0.000000e+00 1.000000e+00 0.000000e+00
      outer loop
         vertex 4.618802e+01 6.000000e+01 2.000000e+01
         vertex 0.000000e+00 6.000000e+01 2.000000e+01
         vertex 3.464102e+01 6.000000e+01 4.000000e+01
      endloop
   endfacet
   facet normal 0.000000e+00 1.000000e+00 0.000000e+00
      outer loop
         vertex 3.464102e+01 6.000000e+01 4.000000e+01
         vertex 0.000000e+00 6.000000e+01 2.000000e+01
         vertex 1.154701e+01 6.000000e+01 4.000000e+01
      endloop
   endfacet
   facet normal -0.000000e+00 -1.000000e+00 -0.000000e+00
      outer loop
         vertex 3.464102e+01 0.000000e+00 4.000000e+01
         vertex 1.154701e+01 0.000000e+00 4.000000e+01
         vertex 4.618802e+01 0.000000e+00 2.000000e+01
      endloop
   endfacet
   facet normal 0.000000e+00 -1.000000e+00 0.000000e+00
      outer loop
         vertex 4.618802e+01 0.000000e+00 2.000000e+01
         vertex 1.154701e+01 0.000000e+00 4.000000e+01
         vertex 0.000000e+00 0.000000e+00 2.000000e+01
      endloop
   endfacet
   facet normal -0.000000e+00 -1.000000e+00 0.000000e+00
      outer loop
         vertex 4.618802e+01 0.000000e+00 2.000000e+01
         vertex 0.000000e+00 0.000000e+00 2.000000e+01
         vertex 3.464102e+01 0.000000e+00 0.000000e+00
      endloop
   endfacet
   facet normal 0.000000e+00 -1.000000e+00 0.000000e+00
      outer loop
         vertex 3.464102e+01 0.000000e+00 0.000000e+00
         vertex 0.000000e+00 0.000000e+00 2.000000e+01
         vertex 1.154701e+01 0.000000e+00 0.000000e+00
      endloop
   endfacet
endsolid